<svg width="64" height="64" viewBox="0 0 64 64" fill="none" xmlns="http://www.w3.org/2000/svg">
<rect width="64" height="64" rx="5" fill="url(#paint0_linear_218_10)"/>
<path d="M11.4428 26.5465C11.6174 26.4341 13.5723 25.3088 15.7867 24.0446C18.0012 22.7811 19.9429 21.7453 20.1024 21.7423C20.2613 21.7399 20.4678 21.8132 20.5611 21.9051C20.6911 22.0325 20.7308 25.2325 20.7308 35.462V48.8519H11.125V26.7501L11.4428 26.5465Z" fill="white"/>
<path d="M43.9211 28.1828C44.087 27.6094 44.5496 27.0895 45.1148 26.8406C45.4186 26.7068 46.3115 26.6546 48.3366 26.6523C50.9831 26.6493 51.1688 26.666 51.6839 26.9587C52.8101 27.5987 52.7492 26.9395 52.7492 38.5441V48.852H43.7844V38.7534C43.7844 32.6012 43.8375 28.4707 43.9211 28.1828Z" fill="white"/>
<path d="M25.4004 16.0167C25.5737 15.777 25.9256 15.4794 26.1819 15.3547C26.5878 15.1575 27.3826 15.1278 32.2647 15.1254C38.528 15.1218 38.5389 15.1236 39.1925 16.0874C39.5069 16.5509 39.5154 16.6556 39.5154 20.1136V23.6635H25L25.0424 20.0579C25.083 16.5921 25.0969 16.4354 25.4004 16.0167Z" fill="white"/>
<path d="M25 31.9885V27.7192H39.5154V31.9885H25Z" fill="white"/>
<path d="M25 40.527V36.2578H39.5154V40.527H25Z" fill="white"/>
<path d="M25 48.852V44.7962H39.5154V48.852H25Z" fill="white"/>
<defs>
<linearGradient id="paint0_linear_218_10" x1="32" y1="0" x2="32" y2="64" gradientUnits="userSpaceOnUse">
<stop stop-color="#074B66"/>
<stop offset="1" stop-color="#F3576A"/>
</linearGradient>
</defs>
</svg>
