<svg width="298" height="403" viewBox="0 0 298 403" fill="none" xmlns="http://www.w3.org/2000/svg">
<path fill-rule="evenodd" clip-rule="evenodd" d="M117.734 236.999C125.766 234.495 137.252 235.075 144.138 238.332C151.645 241.885 170.046 262.328 195.42 295.307L202.587 304.622L193.862 314.351C178.768 331.183 167.44 349.568 160.617 368.311C157.237 377.596 152.662 396.211 152.647 400.742L152.64 402.723L148.712 402.725L50.5894 402.757L40.8394 392.634C40.9319 391.503 40.9257 389.372 40.8004 386.943L40.4635 380.39L62.6705 331.191C97.5444 253.935 101.205 246.723 107.856 242.142C110.866 240.068 115.311 237.754 117.734 236.999ZM246.836 402.693H246.267C246.589 402.59 246.897 402.482 247.193 402.367L246.836 402.693ZM92.6265 0.419056C121.284 -0.498932 212.882 0.204732 224.667 1.4337C261.444 5.26969 290.582 44.6228 284.702 82.5196C283.775 88.4923 282.004 94.268 276.671 106.436C272.643 115.46 266.809 127.669 258.355 145.257L244.416 174.257L244.832 174.663C244.716 174.947 244.655 175.115 244.656 175.157C244.669 175.619 248.771 180.044 253.773 184.992C274.522 205.516 287.622 228.941 293.686 256.361C296.652 269.773 296.94 269.101 287.888 269.902C275.611 270.989 261.637 274.173 247.945 279.002C240.98 281.458 235.218 283.361 235.141 283.23C234.416 282 196.075 236.476 188.713 228.101C168.936 205.606 152.824 197.361 128.638 197.361C106.61 197.361 84.1693 208.045 72.4303 224.12C66.4002 232.377 43.5989 279.937 22.151 328.992C17.343 339.99 13.0855 349.341 12.689 349.776C11.5781 350.987 4.82953 330.161 2.71443 318.992C-6.51557 270.256 8.03119 221.909 42.7242 186.009L53.3707 174.992L52.9273 174.067L53.0172 173.978L35.608 137.617C29.5136 124.89 25.0551 115.435 21.773 108.092C12.8811 87.8395 12.3517 81.8671 12.9146 68.9923C14.2816 37.7485 33.4738 12.7572 63.6265 2.95714C67.8915 1.57015 74.3529 1.00505 92.6265 0.419056ZM297.812 287.666C297.881 292.768 297.678 297.881 297.218 302.976C297.568 297.925 297.774 292.551 297.812 287.666ZM296.458 269.438C296.493 269.715 296.528 269.994 296.562 270.273L296.405 269.435L296.458 269.438ZM150.336 36.0607C93.1866 35.9037 77.9897 36.1314 74.6217 37.1954C60.7182 41.5836 50.7302 54.5308 49.192 67.9747C47.4859 77.5788 50.5677 85.4255 71.6929 127.68C79.9524 144.201 82.8447 150.866 85.8053 152.819C86.0269 153.098 86.1792 153.231 86.2574 153.199C86.3028 153.181 86.3487 153.163 86.3941 153.145C88.6594 154.169 91.1685 152.691 96.2799 150.935C131.157 138.951 165.999 138.962 201.133 150.967C206.807 152.906 211.872 154.492 212.389 154.492C213.338 154.488 225.045 130.754 240.009 98.4923L248.126 80.9923L248.109 74.7999C249.797 59.9159 242.043 45.7311 227.456 38.8917L221.836 36.2569L150.336 36.0607Z" fill="#04C47C"/>
</svg>
